<svg width="42" height="42" viewBox="0 0 42 42" fill="none" xmlns="http://www.w3.org/2000/svg">
<path d="M36.3712 22.834C35.9128 22.834 35.4337 22.6882 34.9753 22.584C34.0471 22.3797 33.135 22.1082 32.2462 21.7715C31.2797 21.4199 30.2173 21.4382 29.2635 21.8228C28.3097 22.2074 27.5318 22.9312 27.0795 23.8548L26.6212 24.7923C24.5923 23.6631 22.7277 22.2612 21.0795 20.6257C19.444 18.9774 18.0421 17.1129 16.9128 15.084L17.7878 14.5007C18.7115 14.0484 19.4353 13.2705 19.8199 12.3167C20.2045 11.3629 20.2228 10.3005 19.8712 9.33399C19.5384 8.44387 19.267 7.53202 19.0587 6.60483C18.9545 6.1465 18.8712 5.66733 18.8087 5.18816C18.5557 3.7207 17.7871 2.39179 16.6412 1.44074C15.4954 0.489696 14.0476 -0.0209872 12.5587 0.000661048H6.30868C5.41083 -0.00776924 4.5217 0.177356 3.70183 0.543433C2.88195 0.90951 2.15058 1.44794 1.5575 2.12208C0.964412 2.79622 0.523545 3.59023 0.264907 4.45007C0.00626811 5.3099 -0.0640697 6.21537 0.0586817 7.10483C1.16855 15.8327 5.15457 23.9421 11.3871 30.152C17.6197 36.3619 25.7435 40.3184 34.4753 41.3965H35.267C36.8033 41.3988 38.2866 40.8351 39.4337 39.8132C40.0928 39.2237 40.6193 38.501 40.9784 37.693C41.3375 36.885 41.5211 36.0099 41.517 35.1257V28.8757C41.4915 27.4285 40.9645 26.0351 40.0261 24.9333C39.0876 23.8315 37.7958 23.0895 36.3712 22.834ZM37.4128 35.334C37.4125 35.6298 37.3491 35.9221 37.227 36.1915C37.1048 36.461 36.9267 36.7013 36.7045 36.8965C36.4724 37.0986 36.2003 37.2494 35.9059 37.3392C35.6115 37.4289 35.3015 37.4556 34.9962 37.4173C27.1939 36.4169 19.9467 32.8475 14.3977 27.2721C8.84867 21.6967 5.3137 14.4326 4.35035 6.62566C4.3184 6.32054 4.34803 6.01212 4.4375 5.71867C4.52696 5.42522 4.67444 5.15272 4.87118 4.91733C5.06641 4.6951 5.30673 4.517 5.57614 4.39486C5.84555 4.27273 6.13788 4.20937 6.43368 4.20899H12.6837C13.1682 4.19821 13.6412 4.35666 14.0215 4.65706C14.4017 4.95746 14.6654 5.38102 14.767 5.85483C14.8503 6.42427 14.9545 6.98677 15.0795 7.54233C15.3193 8.64077 15.6396 9.72007 16.0378 10.7715L13.1212 12.1257C12.8718 12.2401 12.6475 12.4026 12.4611 12.604C12.2747 12.8053 12.1299 13.0415 12.0351 13.299C11.9402 13.5564 11.8972 13.8301 11.9084 14.1042C11.9196 14.3784 11.9848 14.6476 12.1003 14.8965C15.1002 21.3179 20.2623 26.48 26.6837 29.4798C27.1909 29.6882 27.7598 29.6882 28.267 29.4798C28.5268 29.3869 28.7656 29.2433 28.9695 29.0573C29.1733 28.8713 29.3382 28.6467 29.4545 28.3965L30.7462 25.4798C31.8237 25.8635 32.9228 26.1835 34.0378 26.4382C34.5934 26.5632 35.1559 26.6673 35.7253 26.7507C36.1992 26.8523 36.6227 27.1159 36.9231 27.4962C37.2235 27.8764 37.382 28.3495 37.3712 28.834L37.4128 35.334Z" fill="white"/>
</svg>
