<svg width="129" height="51" viewBox="0 0 129 51" fill="none" xmlns="http://www.w3.org/2000/svg">
<path d="M65.9302 33.8714H52.792L65.9302 6.62109V33.8714Z" fill="#EC6123"/>
<path d="M85.6726 50.9348H45.2041L51.6678 37.437H85.6726V50.9348Z" fill="#EC6123"/>
<path d="M16.5106 1H0V1.31835L19.8127 43.5309L28.4544 25.7036L16.5106 1Z" fill="#EC6123"/>
<path d="M63.0003 0H46.4614L21.9697 50.9352H38.6494L63.0003 0Z" fill="#EC6123"/>
<path d="M82.333 20.374C84.1128 20.7151 87.6727 22.1282 87.6729 25.0518C87.6729 27.9755 84.1129 29.4861 82.333 29.876H75.167V33.8721H70.8105V20.374H82.333ZM75.3076 27.4629H81.543C82.2279 27.2525 83.5986 26.4813 83.5986 25.083C83.5984 23.6849 82.2279 22.9145 81.543 22.7041H75.3076V27.4629Z" fill="#EC6123"/>
<path d="M101.188 20.374C103.123 20.6022 106.995 21.8409 106.995 24.9707C106.995 28.1003 104.29 29.2739 102.938 29.4697L107.485 33.8721H102.938L99.1592 29.959H94.4707V33.8721H90.623V20.374H101.188ZM94.417 27.4629H100.652C101.337 27.2525 102.707 26.4813 102.707 25.083C102.707 23.6849 101.337 22.9145 100.652 22.7041H94.417V27.4629Z" fill="#EC6123"/>
<path d="M116.23 20.374H112.437V33.8719H116.23V20.374Z" fill="#EC6123"/>
<path d="M94.2076 37.437H90.623V50.9348H94.2076V42.8852L99.4866 49.5114H101.898L107.242 42.4435V50.9348H110.436V37.437H107.242L100.66 45.9775L94.2076 37.437Z" fill="#EC6123"/>
<path d="M129 37.437H115.229V50.9348H129V48.6933H119.021V45.1361H127.67V43.0895H119.021V39.6298H129V37.437Z" fill="#EC6123"/>
</svg>
